<svg viewBox="0 0 24 24" fill="none" xmlns="http://www.w3.org/2000/svg" width="24" height="24" stroke-width="1.5" class="mx-autp"><path d="M1.75 3.75H3.89728C4.38858 3.75 4.8071 4.10688 4.88472 4.59201L5.23 6.75M5.23 6.75L6.61528 15.408C6.6929 15.8931 7.11142 16.25 7.60272 16.25H17.8035C18.2956 16.25 18.7145 15.892 18.7913 15.406L20.1537 6.75H5.23Z" stroke="currentColor" stroke-linecap="square"></path><path d="M9.25 19.75C9.25 20.3023 8.80228 20.75 8.25 20.75C7.69772 20.75 7.25 20.3023 7.25 19.75C7.25 19.1977 7.69772 18.75 8.25 18.75C8.80228 18.75 9.25 19.1977 9.25 19.75Z" fill="currentColor"></path><path d="M18.25 19.75C18.25 20.3023 17.8023 20.75 17.25 20.75C16.6977 20.75 16.25 20.3023 16.25 19.75C16.25 19.1977 16.6977 18.75 17.25 18.75C17.8023 18.75 18.25 19.1977 18.25 19.75Z" fill="currentColor"></path><path fill-rule="evenodd" clip-rule="evenodd" d="M9.5 19.75C9.5 20.4404 8.94036 21 8.25 21C7.55964 21 7 20.4404 7 19.75C7 19.0596 7.55964 18.5 8.25 18.5C8.94036 18.5 9.5 19.0596 9.5 19.75ZM18.5 19.75C18.5 20.4404 17.9404 21 17.25 21C16.5596 21 16 20.4404 16 19.75C16 19.0596 16.5596 18.5 17.25 18.5C17.9404 18.5 18.5 19.0596 18.5 19.75ZM8.25 20.75C8.80228 20.75 9.25 20.3023 9.25 19.75C9.25 19.1977 8.80228 18.75 8.25 18.75C7.69772 18.75 7.25 19.1977 7.25 19.75C7.25 20.3023 7.69772 20.75 8.25 20.75ZM17.25 20.75C17.8023 20.75 18.25 20.3023 18.25 19.75C18.25 19.1977 17.8023 18.75 17.25 18.75C16.6977 18.75 16.25 19.1977 16.25 19.75C16.25 20.3023 16.6977 20.75 17.25 20.75Z" fill="currentColor"></path></svg>