<svg viewBox="0 0 24 24" fill="none" xmlns="http://www.w3.org/2000/svg" width="48" height="48" stroke-width="2"><path fill-rule="evenodd" clip-rule="evenodd" d="M16.5 13C14.4 13.8 12.8 15.4 12 17.5C11.2 15.4 9.6 13.8 7.5 13C9.6 12.2 11.2 10.6 12 8.5C12.8 10.6 14.4 12.2 16.5 13Z" stroke="currentColor"></path><path fill-rule="evenodd" clip-rule="evenodd" d="M9 8.00001C8.1 8.30001 7.3 9.10001 7 10C6.7 9.10001 5.9 8.30001 5 8.00001C5.9 7.70001 6.7 6.90001 7 6.00001C7.3 6.90001 8.1 7.70001 9 8.00001Z" fill="currentColor"></path><path fill-rule="evenodd" clip-rule="evenodd" d="M11.2 4.80001C10.7 5.00001 10.2 5.40001 10 6.00001C9.8 5.40001 9.3 5.00001 8.8 4.80001C9.4 4.60001 9.8 4.10001 10 3.60001C10.2 4.10001 10.7 4.50001 11.2 4.80001Z" fill="currentColor"></path></svg>